<svg width="25" height="19" viewBox="0 0 25 19" fill="none" xmlns="http://www.w3.org/2000/svg">
<path d="M9.04297 0.045718L9.09434 16.8389L13.0097 18.0337L12.9666 3.94733C12.9646 3.28908 13.2661 2.84548 13.755 2.99855C14.394 3.1681 14.5201 3.77513 14.5221 4.43474L14.5393 10.0601C16.9822 11.1962 18.8969 10.046 18.8876 7.0273C18.8782 3.92925 17.7512 2.55855 14.4362 1.46166C13.1315 1.04127 10.7081 0.338907 9.04297 0.045718Z" fill="currentColor"/>
<path d="M13.6659 15.6178L19.9514 13.4259C20.6639 13.1764 20.773 12.8246 20.1926 12.6433C19.6128 12.4619 18.5635 12.5185 17.8511 12.7673L13.6616 14.2115L13.6546 11.9355L13.8958 11.8563C13.8958 11.8563 15.1066 11.4363 16.8081 11.248C18.5116 11.0637 20.5987 11.26 22.2369 11.8578C24.0851 12.4178 24.2949 13.2477 23.8284 13.8215C23.3598 14.3967 22.2131 14.8097 22.2131 14.8097L13.6726 17.8093L13.6659 15.6178Z" fill="currentColor"/>
<path d="M1.83452 15.3702C-0.0445453 14.8515 -0.361249 13.7632 0.49185 13.1313C1.28353 12.5469 2.62699 12.1068 2.62699 12.1068L8.18005 10.1326L8.18687 12.3633L4.19072 13.7952C3.48381 14.0483 3.37837 14.4051 3.95103 14.5877C4.52784 14.7738 5.56672 14.7171 6.27432 14.4627L8.19117 13.7679L8.19728 15.7655C8.0749 15.7864 7.94007 15.8081 7.81561 15.8283C5.89622 16.1447 3.85096 16.0221 1.83452 15.3702Z" fill="currentColor"/>
</svg>
